<svg width="150" height="352" viewBox="0 0 150 352" fill="none" xmlns="http://www.w3.org/2000/svg">
<g opacity="0.03">
<path fill-rule="evenodd" clip-rule="evenodd" d="M148.191 1.03369C181.607 1.03369 214.051 12.3083 239.631 32.7831V32.7823C273.047 59.5118 292.701 97.5177 295.078 139.773C297.355 181.49 281.752 222.306 252.288 251.748L154.617 348.066C150.833 351.813 144.271 351.78 140.487 348.033L44.196 251.817C14.6649 222.309 -0.971369 181.46 1.33889 139.773C3.68232 97.5202 23.37 59.5144 56.7515 32.7831C82.2986 12.3083 114.777 1.03369 148.191 1.03369ZM82.5669 147.908C82.5669 184.073 111.997 213.481 148.191 213.481C184.385 213.481 213.85 184.074 213.816 147.908C213.816 111.743 184.386 82.335 148.191 82.335C111.998 82.335 82.5669 111.742 82.5669 147.908Z" fill="white"/>
<path d="M239.631 32.7831L239.319 33.1734L240.131 33.8237V32.7831H239.631ZM239.631 32.7823L239.944 32.3918L239.131 31.742V32.7823H239.631ZM295.078 139.773L295.578 139.745L295.578 139.744L295.078 139.773ZM252.288 251.748L252.639 252.104L252.641 252.101L252.288 251.748ZM154.617 348.066L154.266 347.71L154.265 347.711L154.617 348.066ZM140.487 348.033L140.134 348.386L140.136 348.388L140.487 348.033ZM44.196 251.817L43.8426 252.171L44.196 251.817ZM1.33889 139.773L0.839655 139.746L0.839654 139.746L1.33889 139.773ZM56.7515 32.7831L57.064 33.1733L57.0642 33.1732L56.7515 32.7831ZM213.816 147.908L213.316 147.908L213.316 147.909L213.816 147.908ZM239.944 32.3927C214.273 11.8455 181.718 0.533691 148.191 0.533691V1.53369C181.496 1.53369 213.829 12.771 239.319 33.1734L239.944 32.3927ZM239.131 32.7823V32.7831H240.131V32.7823H239.131ZM295.578 139.744C293.192 97.3465 273.469 59.2093 239.944 32.3918L239.319 33.1727C272.625 59.8143 292.21 97.6889 294.579 139.801L295.578 139.744ZM252.641 252.101C282.207 222.559 297.862 181.605 295.578 139.745L294.579 139.8C296.848 181.376 281.298 222.053 251.935 251.394L252.641 252.101ZM154.968 348.422L252.639 252.104L251.937 251.392L154.266 347.71L154.968 348.422ZM140.136 348.388C144.112 352.326 150.988 352.364 154.968 348.421L154.265 347.711C150.678 351.263 144.43 351.234 140.839 347.677L140.136 348.388ZM43.8426 252.171L140.134 348.386L140.841 347.679L44.5494 251.463L43.8426 252.171ZM0.839654 139.746C-1.47848 181.574 14.2109 222.562 43.8426 252.171L44.5494 251.463C15.1189 222.056 -0.464254 181.345 1.83812 139.801L0.839654 139.746ZM56.4389 32.3928C22.9479 59.2118 3.19105 97.3489 0.839655 139.746L1.83812 139.801C4.17358 97.6916 23.7921 59.8169 57.064 33.1733L56.4389 32.3928ZM148.191 0.533691C114.665 0.533691 82.0766 11.8454 56.4388 32.3929L57.0642 33.1732C82.5206 12.7711 114.888 1.53369 148.191 1.53369V0.533691ZM148.191 212.981C112.273 212.981 83.0669 183.797 83.0669 147.908H82.0669C82.0669 184.35 111.721 213.981 148.191 213.981V212.981ZM213.316 147.909C213.349 183.797 184.11 212.981 148.191 212.981V213.981C184.661 213.981 214.35 184.351 214.316 147.908L213.316 147.909ZM148.191 82.835C184.11 82.835 213.316 112.019 213.316 147.908H214.316C214.316 111.466 184.662 81.835 148.191 81.835V82.835ZM83.0669 147.908C83.0669 112.018 112.274 82.835 148.191 82.835V81.835C111.722 81.835 82.0669 111.465 82.0669 147.908H83.0669Z" fill="white"/>
<path d="M148.191 115.946C130.546 115.946 116.216 130.266 116.216 147.897C116.216 165.528 130.546 179.848 148.191 179.848C165.837 179.848 180.167 165.528 180.167 147.897C180.167 130.266 165.837 115.946 148.191 115.946Z" fill="white" stroke="white"/>
</g>
</svg>
